<?xml version="1.0" encoding="UTF-8"?>
<svg width="24" height="24" viewBox="0 0 24 24" fill="none" xmlns="http://www.w3.org/2000/svg">
  <!-- Sun with simplified rays -->
  <g stroke="currentColor" stroke-width="1.8" stroke-linecap="round">
    <!-- Main sun rays -->
    <line x1="12" y1="2" x2="12" y2="4"/>
    <line x1="18" y1="6" x2="16.5" y2="7.5"/>
    <line x1="20" y1="12" x2="18" y2="12"/>
    <line x1="6" y1="6" x2="7.5" y2="7.5"/>
    <line x1="4" y1="12" x2="6" y2="12"/>
  </g>
  
  <!-- Sun body -->
  <circle cx="12" cy="12" r="3.5" fill="currentColor" opacity="0.9"/>
  
  <!-- Grass ground line -->
  <line x1="2" y1="19" x2="22" y2="19" stroke="currentColor" stroke-width="1.5"/>
  
  <!-- Stylized grass blades -->
  <g stroke="currentColor" stroke-width="2" fill="none" stroke-linecap="round">
    <!-- Grass blade 1 -->
    <path d="M5 19 Q6 16 5.5 13"/>
    <!-- Grass blade 2 -->
    <path d="M8 19 Q9 15 8.5 12"/>
    <!-- Grass blade 3 -->
    <path d="M11 19 Q12 16 11.5 13"/>
    <!-- Grass blade 4 -->
    <path d="M13 19 Q14 16 13.5 13"/>
    <!-- Grass blade 5 -->
    <path d="M16 19 Q17 15 16.5 12"/>
    <!-- Grass blade 6 -->
    <path d="M19 19 Q20 16 19.5 13"/>
  </g>
</svg>